<?xml version="1.0" standalone="no"?><!DOCTYPE svg PUBLIC "-//W3C//DTD SVG 1.1//EN" "http://www.w3.org/Graphics/SVG/1.1/DTD/svg11.dtd"><svg t="1591515123023" class="icon" viewBox="0 0 1024 1024" version="1.1" xmlns="http://www.w3.org/2000/svg" p-id="3490" width="32" height="32" xmlns:xlink="http://www.w3.org/1999/xlink"><defs><style type="text/css"></style></defs><path d="M811.4 399l-85.6-128.4c-11.8-17.7-31.5-28.2-52.7-28.2H350c-21.2 0-40.9 10.5-52.7 28.2L211.6 399c-16.2 24.3-13.8 56.3 5.9 77.8l265 291c7.4 8.1 18 12.8 29 12.8s21.6-4.7 29-12.8l265-291c19.6-21.5 22-53.5 5.9-77.8zM700.8 287.2l85.6 128.4c1.8 2.7 3.2 5.7 4.1 8.7H645.8l-40.7-152H673c11.2 0.1 21.6 5.6 27.8 14.9z m-189.3 445L409.7 454.4h203.5L511.5 732.2zM574 272.4l40.7 152H408.2l40.7-152H574z m-251.8 14.8c6.2-9.3 16.6-14.9 27.8-14.9h67.9l-40.7 152H232.5c0.9-3 2.3-6 4.1-8.7l85.6-128.4z m-84.4 167.2h140l94.3 257.4-232.4-255.2c-0.7-0.7-1.3-1.5-1.9-2.2z m313.1 257.4l94.3-257.4h140c-0.6 0.8-1.2 1.5-1.9 2.3L550.9 711.8z"  p-id="3491"></path></svg>